<svg width="168" height="280" viewBox="0 0 168 280" fill="none" xmlns="http://www.w3.org/2000/svg">
<path fill-rule="evenodd" clip-rule="evenodd" d="M0 -9H168V181.341H0V-9Z" fill="#4AF6CD"/>
<path d="M60.22 145.763C60.22 142.603 60.68 139.823 61.6 137.423C62.52 134.983 63.9 132.803 65.74 130.883L71.62 135.863C69.34 138.743 68.2 141.763 68.2 144.923C68.2 146.563 68.52 147.823 69.16 148.703C69.76 149.543 70.62 149.963 71.74 149.963C72.54 149.963 73.2 149.743 73.72 149.303C74.24 148.863 74.74 148.123 75.22 147.083C75.7 146.043 76.3 144.403 77.02 142.163C78.38 137.883 80.1 134.763 82.18 132.803C84.22 130.803 87.06 129.803 90.7 129.803C93.34 129.803 95.68 130.483 97.72 131.843C99.72 133.203 101.28 135.183 102.4 137.783C103.52 140.343 104.08 143.363 104.08 146.843C104.08 153.483 102.06 158.903 98.02 163.103L91.96 157.643C94.68 154.323 96.04 150.863 96.04 147.263C96.04 145.383 95.64 143.923 94.84 142.883C94 141.843 92.9 141.323 91.54 141.323C90.58 141.323 89.8 141.523 89.2 141.923C88.56 142.323 88 143.043 87.52 144.083C87 145.083 86.44 146.563 85.84 148.523C84.36 153.243 82.58 156.563 80.5 158.483C78.42 160.403 75.8 161.363 72.64 161.363C70.16 161.363 67.98 160.703 66.1 159.383C64.22 158.023 62.78 156.163 61.78 153.803C60.74 151.403 60.22 148.723 60.22 145.763ZM89.02 92.3588C91.9 92.3588 94.48 92.9988 96.76 94.2788C99.04 95.5188 100.84 97.3988 102.16 99.9188C103.44 102.439 104.08 105.519 104.08 109.159C104.08 114.679 102.74 118.859 100.06 121.699C97.34 124.539 93.66 125.959 89.02 125.959H61.3V114.859H88.66C91.18 114.859 93.04 114.419 94.24 113.539C95.4 112.619 95.98 111.159 95.98 109.159C95.98 107.159 95.38 105.719 94.18 104.839C92.98 103.959 91.14 103.519 88.66 103.519H61.3V92.3588H89.02ZM87.64 72.3511V75.4111H103V86.5111H61.3V72.0511C61.3 66.1711 62.36 61.7911 64.48 58.9111C66.6 55.9911 69.86 54.5311 74.26 54.5311C76.9 54.5311 79.1 55.1511 80.86 56.3911C82.62 57.5911 84.2 59.5311 85.6 62.2111L103 51.8311V64.1911L87.64 72.3511ZM80.08 75.4111V71.6911C80.08 67.8511 78.14 65.9311 74.26 65.9311C72.46 65.9311 71.14 66.4711 70.3 67.5511C69.46 68.5911 69.04 70.1711 69.04 72.2911V75.4111H80.08ZM103 49.3041H61.3V23.6841L69.16 24.8241V38.2041H79.18V26.4441H87.04V38.2041H103V49.3041Z" fill="white"/>
<path d="M60.22 257.92C60.22 252.36 61.98 247.58 65.5 243.58L71.2 249.04C70.12 250.56 69.34 251.94 68.86 253.18C68.34 254.38 68.08 255.76 68.08 257.32C68.08 260.32 69.24 262.68 71.56 264.4C73.88 266.08 77.42 266.92 82.18 266.92C85.66 266.92 88.42 266.64 90.46 266.08C92.46 265.52 93.9 264.68 94.78 263.56C95.66 262.4 96.1 260.92 96.1 259.12C96.1 257.32 95.72 255.68 94.96 254.2H86.38V258.94L78.76 260.02V243.46H99.52C100.96 245.62 102.08 248.06 102.88 250.78C103.68 253.5 104.08 256.18 104.08 258.82C104.08 271.86 96.76 278.38 82.12 278.38C77.56 278.38 73.64 277.5 70.36 275.74C67.04 273.94 64.52 271.5 62.8 268.42C61.08 265.34 60.22 261.84 60.22 257.92ZM60.22 220.335C60.22 214.295 62.14 209.595 65.98 206.235C69.82 202.875 75.2 201.195 82.12 201.195C86.64 201.195 90.56 201.955 93.88 203.475C97.16 204.955 99.68 207.135 101.44 210.015C103.2 212.895 104.08 216.335 104.08 220.335C104.08 226.375 102.16 231.075 98.32 234.435C94.48 237.755 89.08 239.415 82.12 239.415C77.6 239.415 73.7 238.675 70.42 237.195C67.14 235.675 64.62 233.495 62.86 230.655C61.1 227.775 60.22 224.335 60.22 220.335ZM68.2 220.335C68.2 222.935 69.28 224.855 71.44 226.095C73.6 227.295 77.16 227.895 82.12 227.895C87.08 227.895 90.66 227.275 92.86 226.035C95.02 224.795 96.1 222.895 96.1 220.335C96.1 217.695 95.02 215.775 92.86 214.575C90.7 213.375 87.12 212.775 82.12 212.775C77.16 212.775 73.6 213.375 71.44 214.575C69.28 215.775 68.2 217.695 68.2 220.335Z" fill="white"/>
<rect x="83" y="191.307" width="19.931" height="1" transform="rotate(-90 83 191.307)" fill="white"/>
</svg>
